<?xml version="1.0" encoding="UTF-8"?>
<svg xmlns="http://www.w3.org/2000/svg" viewBox="0 0 487.67 112.94">
  <defs>
    <style>
      .cls-1 {
        fill: #3e3a39;
      }

      .cls-2 {
        fill: #2c96b1;
      }
    </style>
  </defs>
  <path class="cls-1" d="m13.77,53.04c-1.03,3.32-2.09,6.1-3.21,8.29l-4.55-2c2.43-4.95,4.08-10.23,4.92-15.89l4.87.88c-.35,2.53-1.02,5.46-2.02,8.71Zm6.77,14.14l-1.69-32.27,4.88-.26,1.69,32.27-4.88.26Zm13.67-7.77l-6.1-15.96,4.49-1.75,6.11,16-4.49,1.72Z"/>
  <path class="cls-1" d="m67.65,67.33l-17.38-.91.61-11.57c-1.32,1.25-2.63,2.4-3.94,3.39l-2.7-3.61c1.31-.99,2.65-2.14,3.98-3.46l-2.92-.15.2-3.85,6.06.32c.34-.4.65-.83.97-1.24l-4.1-.22.18-3.53,6.22.33.57-1-7.95-.42.2-3.85,9.33.49c.19-.6.32-1.17.41-1.71l4.43.72c-.05.41-.14.83-.26,1.24l11.58.61-.2,3.85-12.7-.67c-.15.35-.29.66-.47,1l11.7.61-.18,3.53-13.47-.71-.84,1.24,7.95.42,1.28-1.19,1.19,1.32,6.93.36-.2,3.85-2.98-.16,3.59,3.89-3.31,3.04-3.16-3.45-.6,11.48Zm-13.57-15.85c-.21.28-.52.68-.93,1.17l12.6.66-1.03-1.28-10.65-.56Zm1.19,4.98l-.07,1.41,7.41.39-.18,3.37-7.41-.39-.08,1.57,8.46.44.33-6.35-8.46-.44Z"/>
  <path class="cls-1" d="m85.19,66.25l-3.53-2.87c3.16-4.05,5.33-8.73,6.5-14.09l4.4,1.05c-1.32,6.02-3.78,11.32-7.36,15.91Zm-3.31-19.59l-.24-4.59,11.64-.61-.27-5.12,4.49-.24.27,5.12,11.83-.62.24,4.59-27.96,1.47Z"/>
  <path class="cls-2" d="m124.74,52.53l1.73.09-.74,14.04-4.49-.24.51-9.78-.8,1.08-3.66-2.6,7.49-10.44,3.66,2.63-3.71,5.21Zm17.31-8.74l-.09,1.76-4.49-.24.09-1.76-8.66-.45-.09,1.76-4.49-.24.09-1.76-5.93-.31.24-4.49,5.93.31.11-2.08,4.49.24-.11,2.08,8.66.45.11-2.08,4.49.24-.11,2.08,5.61.29-.24,4.49-5.61-.29Zm-10.78,22.81l1.09-20.78,4.49.24-.85,16.29,10.68.56-.24,4.49-15.17-.79Zm7.74-9.72l-2.47-3.76,7.99-5.27,2.47,3.76-7.99,5.27Z"/>
  <path class="cls-1" d="m157.31,62.41l-.94-18,4.12-.22.94,18-4.12.22Zm19.77-4.51c-.81-.15-1.61-.25-2.47-.34l.11,2.03c.09,1.79-.4,3.33-1.52,4.63-1.12,1.3-2.57,1.98-4.36,2.08-1.59.08-2.97-.42-4.13-1.55-1.19-1.15-1.81-2.5-1.9-4.12-.12-2.23.56-4,2.01-5.34,1.39-1.31,3.2-1.99,5.43-2.02l-.2-3.88-5.74.3-.22-4.12,5.74-.3-.16-3.08,4.12-.22.16,3.08,1.84-.1.22,4.12-1.84.1.22,4.21c1.19.13,2.33.26,3.38.43l-.7,4.09Zm-6.61-.51l-.38.02c-2.2.12-3.25,1.11-3.15,3,.02.47.21.87.53,1.24.32.37.72.54,1.16.52.6-.03,1.09-.28,1.48-.74.36-.46.53-.99.49-1.62l-.13-2.42Z"/>
  <path class="cls-2" d="m6.01,102.52l.27-5.15,15,.79.3-5.77-15-.79.27-5.15,15,.79.22-4.29-15-.79.27-5.15,20.15,1.06-1.34,25.51-20.15-1.06Z"/>
  <path class="cls-1" d="m37.44,93.25l-.25-4.81,20.82-1.09.25,4.81-20.82,1.09Z"/>
  <path class="cls-1" d="m76.01,106.61l-3.21-4.37c5.77-4.3,10.79-10.31,15.04-18.02l-6.36-3.74-8.13,9.25-4.09-3.55,11.1-12.68,14.66,8.67c-5.39,10.88-11.72,19.03-19,24.44Zm19.15-27.3l-2.43-2.63-2.67,2.47-2.44-2.63,2.63-2.47,2.47,2.63,2.66-2.43,2.44,2.63-2.66,2.43Z"/>
  <path class="cls-1" d="m109.93,101.45l-5.15-.42,1.67-21.95,5.15.42-1.67,21.95Zm16-2.11c-2.76,1.9-5.24,3.24-7.4,4l-3.28,1.14-1.47-27.98,5.15-.27,1.09,20.74c3.31-1.86,6.19-4.08,8.64-6.65l3.73,3.59c-1.79,1.88-3.97,3.69-6.46,5.43Z"/>
  <path class="cls-1" d="m160.65,95.48l-12.55-6.82-.87,16.51-5.15-.27,1.59-30.28,5.15.27-.63,12.08,1.75-3.18,13.15,7.16-2.44,4.52Z"/>
  <path class="cls-1" d="m181.53,105.61l-3.26-2.15c2-3.07,2.94-5.94,2.81-8.59-.15-2.83-1.5-4.35-4.09-4.55l.54,10.23-3.9.2-.52-9.92c-.62.19-1.25.43-1.89.7l-1.52-3.59c1.1-.47,2.17-.84,3.2-1.11l-.21-4,3.9-.2.2,3.77c2.43.08,4.37.86,5.83,2.35,1.43,1.51,2.21,3.48,2.34,5.92.19,3.53-.95,7.19-3.41,10.93Zm8.84-13.22l-5.75-3.48,2.01-3.33,5.75,3.48-2.01,3.33Zm.3-7.67l-1.94-1.7-1.72,1.97-1.94-1.7,1.72-1.97,1.94,1.7,1.72-1.94,1.94,1.7-1.72,1.94Z"/>
  <path class="cls-2" d="m251.12,69.03l-4.91-2.16v16.61l3.36,4.44-7.61,4.8,11.93,6.12-3.6,6.9-23.44-12.11,8.03-5.04h-21.34v7.73l12.59-1.98,1.2,7.67-21.58,3.42v-38.19l-4.02,1.8-3.36-7.67,28.06-12.47,28.06,12.47-3.36,7.67Zm-24.7-11.51l-15.77,7.13h11.45v-3.72h8.39v3.72h11.69c-4.56-1.98-9.83-4.32-15.77-7.13Zm11.99,13.37h-24.88v2.34h22.54v5.46l-22.54-.06v2.46h24.88v-10.19Z"/>
  <path class="cls-1" d="m310.45,98.36c-18.46-15.31-27.92-22.93-28.32-22.93-.99,0-3.68,2.36-8.21,7.16-2.43,2.56-4.8,5.19-7.16,7.82l-7.03-6.9c2.96-3.15,7.42-7.82,13.4-13.93,2.76-2.69,5.78-4.01,9.07-4.01,2.56,0,4.86.85,6.9,2.5l27.66,22.67-6.31,7.62Zm-4.01-29.17l-4.73-4.53-4.6,4.66-4.66-4.47,4.6-4.73,4.66,4.53,4.6-4.73,4.67,4.53-4.53,4.73Z"/>
  <path class="cls-1" d="m343.83,69.66l-10.72,32.27-8.36-2.77,9.77-29.51h-6.42v-8.83h9.37l2.41-7.3,8.36,2.83-1.47,4.48h7.01v8.83h-9.95Zm20.55,35.1c-9.95,0-17.2-2.89-21.79-8.6l6.89-5.54c2.83,3.53,7.6,5.3,14.37,5.3,1,0,2.06-.06,3.18-.12l.59,8.83c-1.12.06-2.18.12-3.24.12Zm-14.13-24.44v-8.83h16.31v8.83h-16.31Z"/>
  <path class="cls-1" d="m386.21,99.82c-3.26-4.94-5.48-9.39-6.62-13.35-1.19-3.91-1.79-8.85-1.79-14.76,0-4.88.54-9.28,1.68-13.24l7.82,2.22c-.92,3.31-1.36,6.95-1.36,11.02,0,5.37.76,10.31,2.22,14.82l6.13-6.03,5.7,5.81-13.78,13.51Zm29.87-16.18l-6.75-17.06,7.56-3.01,6.75,17.06-7.56,3.01Z"/>
  <path class="cls-2" d="m205.55,43.55l-1.8,1.51s-1.84-2.44-2.13-2.95l-1.3.15.06,2.57h-2.01s-.03-7.99,0-9.06c3.08-.81,5.45-.24,6.03,2.04.24,1.27-.18,2.57-1.54,3.1,0,0,1.93,2.17,2.68,2.63Zm-3.1-5.15c-.07-.75-.69-1.15-2.16-1.02l.03,2.68c1.15-.03,2.25-.48,2.13-1.66Z"/>
  <path class="cls-1" d="m207.63,45.87s.03-7.26-.03-9.15l2.35.06s.05,6.35.1,9c-1.14.03-1.45.03-2.42.09Z"/>
  <path class="cls-1" d="m221.31,43.76l-1.83,1.41s-2.78-3.22-3.07-3.67l-.73.42s.1,2.04.16,2.93l-2.48-.03s.05-7.39.03-9.13l2.38-.06v3.28s2.53-2.01,3.83-3.11l1.27,2.16s-1.78.96-3.35,1.92c0,0,2.32,2.5,3.79,3.89Z"/>
  <path class="cls-1" d="m231.92,44.76l-1.83,1.41s-2.78-3.22-3.07-3.67l-.73.42s.1,2.04.16,2.93l-2.48-.03s.05-7.39.03-9.13l2.38-.06v3.28s2.53-2.01,3.83-3.11l1.27,2.16s-1.78.96-3.35,1.92c0,0,2.32,2.5,3.79,3.89Z"/>
  <path class="cls-1" d="m238.29,35.22c1.71,2.8,4.28,7.65,5.21,9.63,0,0-2.11.19-2.81.19,0,0-.46-1.41-.84-2.32,0,0-1.27.02-3.07.05l-.9,2.16s-1.33-.22-2.29-.4c2.96-6.39,3.08-6.38,4.7-9.3Zm.91,5.31c-.42-.94-1.03-2.14-1.03-2.14l-.93,2.2c.97.03,1.96-.06,1.96-.06Z"/>
  <path class="cls-1" d="m261.29,36.8l2.38,1.03s-3.19,7.07-3.95,8.07c0,0-1.89-1.93-3.22-3.28,0,0-1.89,2.29-2.98,3.26,0,0-3.13-6.11-4-7.96l2.08-1s1.47,3.65,2.41,5.55c1.27-1.69,1.89-2.8,2.56-3.74,0,0,1.75,2.77,2.44,3.55,0,0,1.66-3.95,2.28-5.48Z"/>
  <path class="cls-1" d="m267.78,35.22c1.71,2.8,4.28,7.65,5.21,9.63,0,0-2.11.19-2.81.19,0,0-.46-1.41-.84-2.32,0,0-1.27.02-3.07.05l-.9,2.16s-1.33-.22-2.29-.4c2.96-6.39,3.08-6.38,4.7-9.3Zm.91,5.31c-.42-.94-1.03-2.14-1.03-2.14l-.93,2.2c.97.03,1.96-.06,1.96-.06Z"/>
  <path class="cls-1" d="m280.81,36.65s1.66.06,2.34.06c0,0,.09,8.25.01,9.12,0,0-1.18.09-2.44.09,0,0-3.31-4.87-3.79-5.66l.08,5.57s-1.36.07-2.28.03c0,0,.05-5.97,0-8.89l2.02-.15s3.8,5.93,4.09,6.66l-.03-6.83Z"/>
  <path class="cls-1" d="m290.05,37.87l.18,6.9s-1.24.13-2.32.13c0,0,.21-6.33.18-7.04,0,0-2.08-.18-2.77-.21v-1.9s5.64,0,7.51.06l-.18,2.02s-2.11.06-2.6.03Z"/>
  <path class="cls-1" d="m296.97,46.08c-1.71,0-2.93-1.11-3.26-2.11l1.42-1.35c.18.75.73,1.53,1.72,1.62.58.05,1.18-.1,1.24-.85.14-1.71-3.11-1.41-3.73-3.64-.43-1.62.57-3.07,2.51-3.23,1.81-.15,3.32,1.11,3.35,2.71l-1.87.28c.06-.6-.37-1.33-1.09-1.35-.61-.02-1.06.25-1.08.78-.03.49.25.69.72,1.02,2.59,1.38,3.41,1.99,3.35,3.56-.05,1.06-.88,2.57-3.29,2.56Z"/>
  <path class="cls-1" d="m311.02,37.87l.18,6.9s-1.24.13-2.32.13c0,0,.21-6.33.18-7.04,0,0-2.08-.18-2.77-.21v-1.9s5.64,0,7.51.06l-.18,2.02s-2.11.06-2.6.03Z"/>
  <path class="cls-1" d="m323.12,41.16c.13,2.59-1.09,4.57-3.2,5.01-2.15.46-4.76-.96-4.91-4.28-.2-4.37,2.37-5.27,4.03-5.27,1.68.04,3.88.66,4.09,4.54Zm-2.14.13c-.05-1.48-.46-2.78-2.1-2.78-1.47.17-1.89,1.42-1.84,3.08.05,1.38.6,2.6,1.89,2.77.96.1,2.14-.6,2.05-3.07Z"/>
  <path class="cls-2" d="m329.19,35.77s3.56-.13,6.65.03l-.18,1.78s-2.26.21-3.8.27l.06,1.39s2.37-.1,3.26-.1l-.03,1.96s-2.38-.09-3.2-.14l.1,1.71s2.57.09,3.83-.24l-.18,2.4s-5.1.12-6.41-.12c-.18-4.66-.16-4.66-.1-8.94Z"/>
  <path class="cls-1" d="m341.7,36.22c1.71,2.8,4.28,7.65,5.21,9.63,0,0-2.11.19-2.81.19,0,0-.46-1.41-.84-2.32,0,0-1.27.02-3.07.05l-.9,2.16s-1.33-.22-2.29-.4c2.96-6.39,3.08-6.38,4.7-9.3Zm.91,5.31c-.42-.94-1.03-2.14-1.03-2.14l-.93,2.2c.97.03,1.96-.06,1.96-.06Z"/>
  <path class="cls-1" d="m351.25,37.87l.18,6.9s-1.24.13-2.32.13c0,0,.21-6.33.18-7.04,0,0-2.08-.18-2.77-.21v-1.9s5.64,0,7.51.06l-.18,2.02s-2.11.06-2.6.03Z"/>
  <path class="cls-2" d="m363.65,42.5s-2.81-3.74-3.59-5.09l1.77-.85,2.6,4.64c1.71-2.59,2.04-3.02,3.04-4.61l2.23,1.26s-3.58,4.24-3.86,4.73l.1,3.29h-2.43l.14-3.37Z"/>
  <path class="cls-1" d="m379.08,40.16c.13,2.59-1.09,4.57-3.2,5.01-2.15.46-4.76-.96-4.91-4.28-.2-4.37,2.37-5.27,4.03-5.27,1.68.04,3.88.66,4.09,4.54Zm-2.14.13c-.05-1.48-.46-2.78-2.1-2.78-1.47.17-1.89,1.42-1.84,3.08.05,1.38.6,2.6,1.89,2.77.96.1,2.14-.6,2.05-3.07Z"/>
  <path class="cls-1" d="m381.27,41.58c-.08-3.1,1.92-5.01,4.39-5.06,2.23-.03,3.92,1.21,4.16,3.2l-2.26.21c-.14-.81-.69-1.62-1.95-1.53-1.09.09-1.84.91-2.04,2.22-.21,1.38.15,3.4,1.92,3.74,1.62.33,2.58-.72,2.54-1.84l-1.8.1v-1.89l3.79.13c.3,2.92-1.3,4.99-3.58,5.19-2.86.28-5.12-1.62-5.18-4.49Z"/>
  <path class="cls-1" d="m399.85,35.82c.2,1.9.23,3.52.14,4.7-.24,3.04-1.65,4.24-3.8,4.31-2.41.07-3.65-1.74-3.88-4.51-.12-1.38-.09-3.29-.06-4.57l2.35-.02s-.3,3.04-.21,4.76c.1,1.84.91,2.54,1.9,2.44.97-.09,1.38-1.23,1.38-3.04,0-1.2-.16-2.68-.37-3.98l2.56-.1Z"/>
  <path class="cls-1" d="m409.76,44.55l-1.8,1.51s-1.84-2.44-2.13-2.95l-1.3.15.06,2.57h-2.01s-.03-7.99,0-9.06c3.08-.81,5.45-.24,6.03,2.04.24,1.27-.18,2.57-1.54,3.1,0,0,1.93,2.17,2.68,2.63Zm-3.1-5.15c-.08-.75-.69-1.15-2.16-1.02l.03,2.68c1.15-.03,2.25-.48,2.13-1.66Z"/>
  <path class="cls-1" d="m415.55,37.87l.18,6.9s-1.24.13-2.32.13c0,0,.21-6.33.18-7.04,0,0-2.08-.18-2.77-.21v-1.9s5.64,0,7.51.06l-.18,2.02s-2.11.06-2.6.03Z"/>
  <path class="cls-1" d="m421.54,45.77l.13-1.72,1.66.06.16,1.54c-.69.15-1.09.18-1.96.12Zm.3-2.77s-.18-3.41-.22-6.48l2.02.12s-.33,4.43-.39,6.26c-.34.06-.81.07-1.41.1Z"/>
  <g>
    <path class="cls-2" d="m180.05,30.93l.04-1.43-3.81-.1-1.69-1.78,2.2.06.05-1.79-3.99-.1-2.36-2.48.26-.87,3.36-.81,3.37,2.06.93-1.52-1.84-1.13,2.38-.57,3.21,1.97.75-1.22-1.99-1.22,3.83-.92-.33-1.39-3.86.93,1.24-2.03-1.22-.75-1.99,3.25-2.38.57,1.15-1.88-1.52-.93-2.08,3.4-3.32.8-.62-.7.97-3.27,3.47-1.88-.85-1.57-1.9,1.03.69-2.35,3.31-1.8-.68-1.26-2.05,1.12,1.12-3.78-1.37-.41-1.12,3.8-1.14-2.09-1.26.68,1.82,3.35-.69,2.35-1.05-1.93-1.57.85,1.91,3.5-.98,3.32-.86.18-2.39-2.52.1-3.94-1.79-.05-.06,2.16-1.69-1.78.1-3.77-1.43-.04-.06,2.34-2.71-2.85-1.04.99,2.73,2.88-2.38-.06-.04,1.43,3.81.1,1.69,1.78-2.2-.06-.05,1.79,3.99.1,2.36,2.48-.26.87-3.36.81-3.37-2.06-.93,1.53,1.84,1.13-2.38.57-3.21-1.97-.75,1.22,1.99,1.22-3.83.92.33,1.39,3.86-.93-1.24,2.03,1.22.75,1.99-3.25,2.38-.57-1.15,1.88,1.52.93,2.08-3.4,3.33-.8.62.66-.98,3.32-3.47,1.88.85,1.57,1.9-1.03-.69,2.35-3.31,1.8.68,1.26,2.05-1.12-1.12,3.78,1.37.41,1.12-3.8,1.14,2.09,1.26-.68-1.82-3.35.69-2.35,1.05,1.93,1.57-.85-1.91-3.5.97-3.29.88-.21,2.38,2.51-.1,3.94,1.79.05.06-2.16,1.69,1.78-.1,3.76,1.43.04.06-2.34,2.71,2.85,1.04-.99-2.73-2.88,2.38.06Zm-10.93-8.03l-.88.21-.62-.66.25-.86.95-.2.56.62-.26.88Z"/>
    <polygon class="cls-2" points="185.41 42.54 184.9 41.33 183.32 41.98 183.54 40.28 182.25 40.11 182.02 41.81 180.66 40.77 179.86 41.81 181.22 42.85 179.64 43.51 180.14 44.72 181.73 44.06 181.5 45.76 182.8 45.93 183.02 44.23 184.38 45.27 185.18 44.24 183.82 43.19 185.41 42.54"/>
    <polygon class="cls-2" points="191.68 32.82 190.39 31.49 188.65 33.18 188.05 30.82 186.25 31.27 186.85 33.63 184.51 32.96 184 34.75 186.34 35.41 184.59 37.1 185.89 38.44 187.63 36.75 188.22 39.1 190.02 38.65 189.43 36.29 191.76 36.96 192.27 35.17 189.94 34.51 191.68 32.82"/>
  </g>
  <path class="cls-2" d="m113.52,53.85l-2.04.25.8-1.9c-1.28-.58-3.28-.17-5.02,1.14-.2.15-.38.33-.54.51-.03-.24-.08-.49-.16-.73-.71-2.05-2.15-3.5-3.54-3.73l-.39,2.02-1.56-1.35c-.95,1.04-1.18,3.07-.47,5.12.08.24.2.46.32.67-.24-.04-.49-.07-.74-.07-2.17.04-4,.96-4.64,2.21l1.8,1-1.76,1.06c.7,1.22,2.55,2.07,4.73,2.03.25,0,.5-.04.74-.1-.12.22-.22.44-.29.68-.63,2.08-.32,4.1.67,5.1l1.5-1.41.47,2.01c1.38-.29,2.76-1.79,3.39-3.87.07-.24.11-.49.14-.73.17.18.35.35.56.49,1.78,1.24,3.8,1.57,5.06.94l-.87-1.87,2.05.18c.15-1.4-.85-3.18-2.63-4.42-.21-.14-.43-.26-.65-.36.22-.11.44-.23.64-.38,1.73-1.31,2.67-3.13,2.46-4.52Z"/>
  <path class="cls-2" d="m434.11,60.05c-2.14-12.7,7.53-24.38,23.48-24.83,14.38-.34,26.85,9.77,24.71,24.38-2.36,17.41-18.54,17.97-26.17,30.56,7.08-.11,12.24-.9,22.36-1.91v16.51c-29.32-.11-22.13-.11-40.44-.34-3.6-24.38,23.7-33.03,27.19-43.92,2.36-7.08-2.47-13.26-8.99-12.36-5.73.67-8.43,4.83-7.75,13.14l-14.38-1.24Z"/>
</svg>