<?xml version="1.0" encoding="UTF-8"?>
<svg xmlns="http://www.w3.org/2000/svg" width="541" height="317" viewBox="0 0 541 317">
  <defs>
    <style>
      .b {
        fill: #924898;
      }

      .c {
        fill: #468c38;
      }

      .d {
        fill: #da527e;
      }

      .e {
        fill: #231815;
      }
    </style>
  </defs>
  <g>
    <path class="d" d="m174.57,210.57c1.57-.03,2.92-.58,4.05-1.65,1.13-1.06,1.74-2.41,1.84-4.04.1-1.75-.48-3.28-1.76-4.58-1.28-1.3-2.79-1.91-4.56-1.82-1.95.07-4.32.25-7.1.53.17-2.88.37-5.73.6-8.54.17-1.81-.35-3.4-1.56-4.76-1.21-1.36-2.69-2.09-4.44-2.19-1.82-.11-3.39.46-4.72,1.7-1.33,1.24-2.02,2.77-2.06,4.59l-.17,10.92c-6.35,1.13-12.34,2.67-17.98,4.6-2.37.8-3.63,2.46-3.78,4.96-.09,1.57.39,2.91,1.46,4.04,1.06,1.13,2.35,1.74,3.85,1.83.62.04,1.26-.05,1.9-.27,4.28-1.32,9.03-2.45,14.24-3.4-.17,8.22-.37,14.8-.59,19.75-2.17-.5-4.6-.84-7.29-.99-5.26-.31-9.59.69-12.99,3.01-3.6,2.43-5.53,5.89-5.79,10.4-.26,4.45,1.13,8.03,4.17,10.75,3.04,2.72,7.35,4.25,12.92,4.57,9.2.54,15.32-2.52,18.35-9.19,1.9,1.81,3.5,3.49,4.79,5.04,1.29,1.55,2.81,2.38,4.56,2.48,1.75.1,3.29-.43,4.62-1.61,1.33-1.18,2.04-2.64,2.14-4.4.11-1.82-.43-3.38-1.61-4.71-4.01-4.44-8.11-7.95-12.29-10.52l1.06-26.13c2.78-.21,5.48-.34,8.12-.37Zm-29.67,38.49c-4.19-.25-6.21-1.74-6.05-4.5.15-2.57,2.42-3.72,6.8-3.46,2.32.14,4.81.88,7.5,2.23-.62,4.11-3.37,6.02-8.25,5.73Z"/>
    <path class="d" d="m197.29,188.97l5.6.43c-.55-1.95-2.21-4.13-4.64-5.79-3.93-2.69-9.91-.77-9.91-.77,0,0,.38,6.27,4.3,8.96,2.43,1.67,5.06,2.43,7.08,2.23l-2.42-5.06Z"/>
    <path class="d" d="m177.98,182.59l-6.07-3.9c-.57,2.54-.02,6.01,1.72,9.38,2.8,5.43,10.74,6.91,10.74,6.91,0,0,3.39-7.33.59-12.76-1.74-3.37-4.25-5.83-6.65-6.84l-.34,7.2Z"/>
    <path class="d" d="m104.84,219.93c-.03.32-.06.63-.1.95l.89-.51-.79-.44Z"/>
    <path class="d" d="m124.48,226.95c-.85-.99-1.94-1.53-3.25-1.6-2-.12-3.5.77-4.49,2.66l-.95,1.83c.03-.87.1-1.77.15-2.65-1.97.97-4.15,1.65-6.46,1.68-1.86.02-3.64-.15-5.28-.48-.25,5.5-.17,10.92.25,16.24.25-.15.49-.29.74-.39l.16,3.6,3.13-1.94c.29,1.27,0,3-.91,4.68-.5.93-1.32,1.63-2.17,2.14.31,1.27.94,2.37,1.92,3.28,1.16,1.07,2.56,1.66,4.18,1.75,1.69.1,3.21-.38,4.56-1.43,1.35-1.05,2.17-2.42,2.45-4.1,1.21-6.77,3.43-13.49,6.65-20.15.28-.55.44-1.14.48-1.76.07-1.25-.32-2.37-1.17-3.37Z"/>
    <path class="d" d="m117.46,214.05c1.23-7.4,3.09-15.3,5.63-23.74.15-.49.25-1.02.28-1.59.1-1.75-.42-3.31-1.56-4.66-1.15-1.35-2.66-2.09-4.54-2.2-1.56-.09-2.99.34-4.27,1.3-1.28.96-2.09,2.22-2.44,3.77-2.09,9.47-3.66,17.85-4.73,25.19,1.22-.19,2.5-.31,3.82-.32,2.87-.03,5.53.95,7.8,2.25Z"/>
    <path class="d" d="m104.74,220.88l-7.69,4.41c1.73,1.41,4.22,2.49,7.14,3.08.04-.9.09-1.8.14-2.7.1-1.52.24-3.12.4-4.79Z"/>
    <path class="d" d="m97.16,215.65l7.68,4.28c.26-2.45.59-5.06,1-7.81-3.57.57-6.63,1.84-8.68,3.53Z"/>
    <path class="d" d="m124.68,220.15s-2.88-3.63-7.22-6.1c-.76,4.57-1.27,8.95-1.53,13.12,5.15-2.53,8.75-7.02,8.75-7.02Z"/>
    <path class="d" d="m81.01,199.02s-3.08-11.48-11.58-15.03c-5.27-2.2-10.58-2.66-14.36-1.56l6.53,8.49-10.85,1.24c1.77,3.42,5.77,6.84,11.04,9.04,8.51,3.55,19.22-2.18,19.22-2.18Z"/>
    <path class="d" d="m75.63,217.2s6.5,3.23,11.51.97c3.11-1.4,5.43-3.51,6.42-5.58l-6.5-.55,3.74-5.18c-2.27-.59-5.43-.23-8.54,1.18-5.01,2.26-6.64,9.17-6.64,9.17Z"/>
    <path class="d" d="m104.45,244.61c-1,.62-1.98,1.67-2.7,3.02-1.45,2.71.28,6.38.28,6.38,0,0,1.76-.32,3.38-1.29-.06-.23-.12-.46-.16-.71-.34-2.45-.6-4.91-.8-7.4Z"/>
    <path class="d" d="m68.43,219.18c1.46-3.01,1.85-6.07,1.25-8.28l-5.35,3.61-.55-6.3c-2.14.96-4.32,3.2-5.78,6.21-2.35,4.85.96,11.17.96,11.17,0,0,7.13-1.55,9.48-6.41Z"/>
    <path class="d" d="m73.34,231.42c-3.13-1.36-6.29-1.69-8.55-1.07l3.81,5.13-6.49.64c1.03,2.06,3.37,4.14,6.5,5.5,5.04,2.2,11.49-1.12,11.49-1.12,0,0-1.72-6.88-6.76-9.08Z"/>
    <path class="d" d="m82.04,221.91l.34,3.89-3.64-1.66c-.13,1.4.43,3.23,1.64,4.91,1.95,2.72,6.45,2.94,6.45,2.94,0,0,1.34-4.17-.61-6.89-1.21-1.68-2.78-2.83-4.18-3.2Z"/>
    <path class="d" d="m97.54,234.48c-1.27-.4-3.08-.29-4.89.41-2.92,1.14-4.07,5.02-4.07,5.02,0,0,3.59,2.03,6.51.9,1.81-.71,3.2-1.84,3.83-2.98l-3.68-.51,2.29-2.83Z"/>
  </g>
  <g>
    <path class="b" d="m93.76,165.76c-12.13-.86-27.79-8.91-40.02-16.43.82,4.52,1.93,8.02,3.34,10.47,4.67,8.22,13.13,12.18,25.39,11.9,12.62-.29,26.55-3.71,41.8-10.24.42-.18.8-.38,1.17-.59-11.52,3.36-22.44,5.55-31.67,4.9Z"/>
    <path class="b" d="m70.5,67.1c.02-2.77-.97-5.15-2.99-7.11-2.02-1.97-4.41-2.92-7.18-2.85s-4.97,1.08-6.84,3.05c-1.88,1.97-2.79,4.3-2.72,6.98l.94,44.12c5.63,3.59,12.22,7.48,18.92,10.74-.41-22.73-.45-41.04-.11-54.91Z"/>
    <path class="b" d="m129.46,155.57c.18-.8.27-1.65.25-2.57-.01-.55-.08-1.07-.18-1.58-13.09,4.07-25.59,6.92-35.96,6.19-12.45-.88-28.59-9.32-40.94-17.01.11,1.26.23,2.46.36,3.62,12.23,7.76,28.83,16.79,41.04,17.65,10,.7,22.4-2.21,35.43-6.31Z"/>
    <path class="b" d="m70.69,126.38c-6.63-3.09-13.18-6.82-18.9-10.39l.07,3.43c5.62,3.59,12.21,7.48,18.9,10.73-.03-1.27-.05-2.53-.08-3.77Z"/>
    <path class="b" d="m71.46,142.86c-6.77-3.12-13.47-6.94-19.3-10.58.04,1.19.09,2.35.15,3.48,6.04,3.85,13.19,8.05,20.39,11.43-.53-1.22-.94-2.67-1.23-4.32Z"/>
    <path class="b" d="m70.92,137.19c-.02-.9-.04-1.78-.06-2.67-6.63-3.09-13.18-6.83-18.9-10.4l.07,3.43c5.63,3.6,12.23,7.5,18.94,10.75-.02-.37-.04-.73-.05-1.12Z"/>
    <path class="b" d="m124.07,144.85c-5.87,1.68-11.58,3.04-16.98,3.86-7.08,2.3-13.41,3.67-19,4.1,1.99.46,3.93.79,5.75.92,9.65.68,21.53-2,34.06-5.88-.29-.38-.6-.74-.96-1.1-.87-.85-1.83-1.49-2.87-1.91Z"/>
  </g>
  <g>
    <path class="e" d="m237.15,194.76c.16,1.3-.12,2.52-.85,3.66-.73,1.14-1.73,1.91-3,2.31-5.26,1.62-9.9,3.18-13.91,4.7-3.82,12.66-8.29,24.74-13.4,36.23-.89,2.03-2.48,3.19-4.79,3.48-1.59.2-3.06-.2-4.38-1.21-1.33-1-2.09-2.33-2.3-3.99-.15-1.18.07-2.35.64-3.5,4.45-8.59,8.11-17.06,10.97-25.4-3.57,1.65-6.46,3.06-8.65,4.23-.62.32-1.28.52-1.99.61-1.48.18-2.82-.16-4.04-1.03-1.22-.87-1.93-2.1-2.13-3.7-.34-2.72.68-4.64,3.06-5.78,6.8-3.25,12.74-5.91,17.82-7.98,1.04-4.15,1.89-8.22,2.53-12.2.48-2.88,2.17-4.5,5.07-4.86,1.65-.21,3.1.19,4.33,1.17,1.23.99,1.95,2.25,2.14,3.78.09.71.06,1.43-.09,2.17l-1.25,5.11c4.71-1.67,7.39-2.54,8.05-2.62,1.48-.18,2.83.19,4.05,1.12,1.23.93,1.93,2.16,2.13,3.7Z"/>
    <path class="e" d="m267.47,243.74c-.25-2.01-1.22-3.51-2.9-4.5-5.12-3.08-10.42-5.39-15.9-6.93-1.25-5.24-1.99-8.72-2.2-10.44-.08-.65-.11-1.64-.1-2.96.01-1.32-.02-2.31-.1-2.96-.18-1.48-.89-2.71-2.13-3.7-1.23-.99-2.62-1.38-4.15-1.19-3.01.38-4.69,2.06-5.04,5.04-.39,3.17.09,7.91,1.41,14.23-1.99-.05-3.93.04-5.82.27-5.26.65-9.42,2.4-12.49,5.25-3.39,3.12-4.8,7.02-4.22,11.69.56,4.49,2.83,7.81,6.82,9.95,3.72,1.94,8.24,2.57,13.56,1.91,9.69-1.21,14.96-5.88,15.81-14.03,3.37,1.56,6.07,2.99,8.1,4.3,1.17.75,2.5,1.04,3.98.86,1.71-.21,3.09-.99,4.12-2.31,1.03-1.33,1.45-2.82,1.24-4.48Zm-29.99,2.74c-.91,1.37-2.61,2.21-5.09,2.52-4.55.57-6.99-.48-7.32-3.14-.38-3.01,1.86-4.82,6.7-5.43,1.77-.22,3.99-.02,6.65.61.18,2.44-.13,4.25-.94,5.43Z"/>
    <path class="e" d="m263.57,206.69c.2,1.6-.19,3.03-1.18,4.29-.98,1.26-2.27,1.99-3.87,2.19-1.72.21-3.2-.17-4.46-1.15-2.93-2.28-5.61-4.13-8.07-5.57-1.62-.94-2.54-2.35-2.78-4.24-.2-1.6.18-3.01,1.14-4.24.96-1.23,2.23-1.94,3.83-2.14,1.12-.14,2.23.05,3.31.58,3.46,1.73,6.78,3.84,9.97,6.32,1.2.93,1.9,2.25,2.11,3.97Z"/>
    <path class="e" d="m171.57,124.9c12.05-3.81,23.64-6.65,33.58-6.68,3.33-1.61,6.38-2.67,9.15-3.17-2.13-.51-4.18-.86-6.12-.99-9.84-.68-21.98,2.13-34.77,6.14l.4,2.74c-.71.61-1.46,1.28-2.23,1.97Z"/>
    <path class="e" d="m196.94,106.38c-2.77,1.62-5.68,3.47-8.74,5.58-.2-1.39-.38-2.67-.56-3.89-4.94,1.12-10.1,2.6-15.37,4.26l.57,3.95c12.96-4.03,25.33-6.83,35.61-6.11,11.34.79,25.77,7.86,37.6,14.92-.05-1.2-.16-2.41-.32-3.63-11.8-7.21-26.6-14.78-37.74-15.55-3.42-.24-7.14-.03-11.05.48Z"/>
    <path class="e" d="m244.65,116.23c-1.56-5.47-4.33-9.82-8.37-13.01-5.42-4.2-12.04-5.73-19.86-4.6-3.25.47-6.86,1.57-10.83,3.31.9.01,1.79.04,2.67.1,10.96.76,24.8,7.4,36.39,14.21Z"/>
    <path class="e" d="m216.83,145.19c-1.18.17-2.72-.23-4.62-1.2-1.9-.97-3.69-1.33-5.38-1.09-2.27.33-4.1,1.39-5.47,3.17-1.37,1.79-1.9,3.82-1.57,6.09.32,2.19,1.58,4.11,3.8,5.76,4.04,3.02,9.18,4.09,15.41,3.19,8.01-1.16,14.5-5.07,19.49-11.71-5-2.75-10.23-5.3-15.31-7.26-1.87,1.69-3.99,2.71-6.35,3.05Z"/>
    <path class="e" d="m227.03,119.52c.69,1.25,1.2,2.74,1.53,4.47,5.85,2.56,11.71,5.71,17.07,8.88.17-1.06.3-2.13.38-3.22-5.86-3.58-12.45-7.24-18.98-10.13Z"/>
    <path class="e" d="m186.14,96.8c4.59-2.12,9-4.86,13.24-8.23,2.46-1.99,3.48-4.45,3.05-7.4-.32-2.19-1.37-3.95-3.15-5.28-1.78-1.33-3.77-1.84-5.95-1.52-1.18.17-2.35.68-3.51,1.54-1.86,1.39-3.75,2.6-5.66,3.65-.45-4.32-.84-8.47-1.16-12.46-.18-2.46-1.25-4.5-3.2-6.11-1.95-1.61-4.15-2.24-6.58-1.88-2.44.35-4.38,1.51-5.81,3.48-1.43,1.97-1.94,4.12-1.51,6.47.65,3.94,1.47,9.32,2.46,16.14l-1.89.27c-3.96.57-7.89.41-11.79-.49-.89-.21-1.92-.24-3.1-.07-2.27.33-4.11,1.43-5.51,3.31-1.4,1.88-1.94,3.95-1.61,6.22.57,3.96,2.8,6.34,6.7,7.15,5.75,1.15,11.44,1.31,17.08.5l2.52-.36.97,6.7c5.25-1.65,10.41-3.11,15.39-4.23-.44-3.22-.77-5.7-.96-7.4Z"/>
    <path class="e" d="m158.53,137.5c10.97-3.84,21.92-7.42,32-9.44-.03-.19-.06-.38-.08-.57,2.38-1.79,4.67-3.38,6.86-4.8-9.87,1.29-21.05,4.65-32.45,8.53-1.97,1.92-4.08,4.01-6.32,6.28Z"/>
    <path class="e" d="m226.13,138.63c-.08.13-.18.24-.26.37,4.98,1.99,10.02,4.49,14.83,7.13.54-.89,1.03-1.78,1.48-2.69-4.67-2.71-9.66-5.35-14.61-7.55-.4.95-.87,1.87-1.44,2.74Z"/>
    <path class="e" d="m178.29,153.98c-6.03-2.48-9.59-3.94-10.68-4.38,1.04-1.31,2.17-2.64,3.36-3.98-6.24,2.03-12.61,4.29-18.91,6.53-1.77.63-3.54,1.26-5.32,1.89,0,.04,0,.08.01.13.33,2.27,1.41,4.09,3.24,5.46,1.83,1.37,3.88,1.89,6.15,1.56,1.43-.21,2.68-.73,3.77-1.57,8.08,4.24,13.84,7.53,17.27,9.87,2.48,1.7,5.19,2.34,8.14,1.92,3.2-.46,5.77-1.99,7.71-4.59,1.94-2.6,2.64-5.49,2.1-8.68-.93-5.67-1.88-11.76-2.86-18.25-4.93.95-10.12,2.31-15.45,3.91l1.47,10.19Z"/>
    <path class="e" d="m228.68,132.11c5.14,2.25,10.29,4.94,15.1,7.71.36-.96.68-1.93.96-2.91-4.94-2.97-10.34-5.95-15.75-8.45,0,1.26-.1,2.48-.3,3.65Z"/>
    <path class="e" d="m152.42,143.79c-1.12,1.17-2.25,2.36-3.42,3.6-.68.72-1.2,1.48-1.58,2.27,1.11-.4,2.23-.79,3.34-1.19,13.93-4.95,28.17-10.01,40.93-12.45-.2-1.35-.4-2.72-.6-4.1-12.01,2.43-25.47,7.18-38.67,11.87Z"/>
    <path class="e" d="m220.49,83.08c5.35,1.37,10.19,3.68,14.53,6.92,1.83,1.37,3.96,1.88,6.4,1.52,2.44-.35,4.32-1.48,5.63-3.39,1.31-1.91,1.81-3.95,1.5-6.14-.3-2.1-1.29-3.85-2.95-5.24-6.24-5.11-13.57-8.35-22.02-9.7-.79-.14-1.61-.15-2.45-.03-2.19.32-3.95,1.36-5.28,3.15-1.33,1.78-1.83,3.81-1.51,6.08.52,3.62,2.57,5.9,6.14,6.84Z"/>
    <path class="e" d="m418.83,191.74c7.49,2.45,17.19,5.04,23.89-.66,0-3.55-.79-6.47-2.36-8.74l-27.96-11.7c-6.81,3.56-48.37,18.13-52.46,12.43l-.64,3.41c-20.91,1.62-44.39,19.8-63.99,7.74h-2.99s3,8.75,3,8.75c0,0,11.53,8.73,11.53,8.73,1.99,5.55,7.33,6.94,13.45,7.67l4.05-2.99s-8.73,18.14-8.73,18.14c-5.59,4.64-9.42,5.92-15.57,1.3l-3.62,2.78,1.29,8.32c4.7,6.53,10.11,12.36,16.23,17.48l7.68-1.71c1.46-1.45,6.88-8.64,9.16-8.76,4.12-6.44,9.13-13.6,8.3-21.13l2.33-13.44-1.28-3.63-5.76-4.69c7.45-2.46,20.82-9.55,28.58-8.14,0,0,1.72,11.73,1.72,11.73-1.34,10.47,1.5,21.53-5.3,30.51-5.22-1.76-11.51-3.88-17.5-3.61v3.63s3,7.46,3,7.46c2.28,2.7,4.98,4.48,8.11,5.33l11.74,10.44c2.28,3.12,5.34,4.69,9.18,4.68l3.63-1.07s7.03-6.41,7.03-6.41c8.95-13.98,1.39-31.31,2.73-46.93-1.81-7.62-.41-16.15,1.68-23.47,3.13.42,5.69-.36,7.68-2.35,7.39-.15,14.79-.51,22.18-1.09Z"/>
    <path class="e" d="m458.19,142.12c-.35,7.45-3.14,13.97-7.65,17.76l-8.74-9.06-3.31,11.72c15.33,8.86,34.67,13.92,49.65,8.65,2.44-3.46,1.89-7.73-1.29-10.66-9.84-5.69-19.47-11.76-28.66-18.41Z"/>
    <path class="e" d="m394.31,201.15l8.12,14.5c11.84,13.07,20.97,28.31,34.38,39.86l2.99-.64,4.05,1.7s2.35-.43,2.35-.43c7.78,1.8,16.64,1.5,20.9-5.35-4.26-28.27-49.8-38.45-72.79-49.63Z"/>
    <path class="e" d="m419.94,127.91c-1.83,3.05-3.9,5.84-6.21,8.02,3.71,4.82,6.97,9.58,9.11,14.85.16.16.33.31.49.47-1.65-2.82-2.98-6.02-3.84-9.53-1-4.07-.62-8.93.45-13.81Z"/>
    <path class="e" d="m414.74,154.2c-10.95-4.63-21.65-6.89-32.65-11.06l-7.04,1.07c-10.11,10.45-29.96,19.56-42.02,7.72,4.54-11.61,11.12-23.49,19.16-32.87,4.24-7.03,9.22-21.5,15.76-25.61,2.4-3.63,4.06-8.39,7.03-11.74,7.41,6.29,11.29,14.67,16.76,22.6,3.29-1.71,7.35-2.66,11.59-3.12-4.79-1.1-9.27-2.82-12.45-5.48-8.98-7.52-13.08-18.21-10.94-26.51l12.4,2.06-.91-2.52c-1.48-1.58-2.92-2.97-4.31-4.11-6.42-5.31-14.94-7.31-22.62-10.43-5.41,1.86-10.45,4.35-15.14,7.48-11.79-1.43-24.5-15.48-36.27-8.71l4.27,6.4c-4.32,19.69-21.5,39.86-38.56,49.96-3.84,0-7.54-1.41-11.1-4.26l-1.7,5.33v4.05c4.28,5.97,8.98,11.23,14.1,15.77-5.03,8.9-8.43,18.06-14.48,26.47-1.99-.42-3.41.15-4.26,1.71,0,0,.64,2.99.64,2.99-2.4,12.67,5.19,25.26,15.82,31.56,9.26-.19,18.3-2.19,23.88-9.41l2.35-.43c8.79-9.1,19.31-16.81,26.64-27.12l1.29,4.69c3.16,1.9,8.7,7.82,11.1,10.65,3.13.71,6.05,2.06,8.75,4.04,18.91-7.45,40.2-10.03,60.57-12.43l4.05-3.42-1.71-5.33Zm-80.5-73.09l4.69-.64,1.06-2.99c3.84-2.28,8.67-3.85,14.5-4.71-2.98,7.83-7.02,15.08-12.14,21.77l-12.8-2.97,4.68-10.46Zm-48.34,81.96c-4.66-7.68-5.69-18.5-.67-26.24,6.41-2.25,11.09-7.86,17.48-11.75l10.04,12.15c-7.84,9.33-17.5,18.13-26.85,25.84Zm37.93-41.64c-4.69-1.13-8.96-2.83-12.8-5.11l5.75-7.05,2.98-7.04,12.17,5.75c-1.56,5.12-4.26,9.6-8.09,13.45Z"/>
  </g>
  <g>
    <path class="c" d="m393.63,106.94c-.63-.84-1.23-1.7-1.82-2.55-.52.27-1.03.56-1.51.87-9.95,6.41-15.5,16.53-14.51,25.01l12.58-.59-5.92,11.33c7.09,4.54,18.44,3.78,28.39-2.63,1.02-.66,1.99-1.45,2.93-2.34-1-1.3-2.02-2.6-3.07-3.92-4.73-5.95-12.5-19.09-17.07-25.17Z"/>
    <path class="c" d="m438.33,163.24l.16-.58c-5.77-3.35-10.97-7.23-15.15-11.31,3.76,6.42,9.24,10.8,14.99,11.89Z"/>
    <path class="c" d="m458.21,142.26c.16-3.33-.16-6.84-1.03-10.39-1-4.07-3.59-8.14-6.79-11.9,4.24,2.49,8.68,4.31,12.81,4.56,11.7.69,22.01-4.27,26.15-11.77l-10.43-7.01,11.32-5.72c-3.05-7.93-12.59-14.07-24.29-14.76-4.14-.25-8.79,1.04-13.34,3.01,3.7-3.35,6.83-7.08,8.39-11,4.4-11.07,3.06-22.48-2.66-28.7l-9.93,7.97-1.74-12.61c-8.42.58-17.25,7.96-21.65,19.02-1.56,3.92-1.85,8.78-1.46,13.75-1.95-4.56-4.45-8.69-7.63-11.35-8.97-7.53-20.13-9.63-27.79-5.96l3.39,9.41c10.66,11.35,23.49,32.44,31.96,42.18,10.34,11.9,22.12,22.13,34.72,31.27Z"/>
  </g>
</svg>